<?xml version="1.0" encoding="utf-8"?>
<!-- Generator: Adobe Illustrator 16.0.4, SVG Export Plug-In . SVG Version: 6.00 Build 0)  -->
<!DOCTYPE svg PUBLIC "-//W3C//DTD SVG 1.1//EN" "http://www.w3.org/Graphics/SVG/1.1/DTD/svg11.dtd">
<svg version="1.1" id="Layer_1" xmlns="http://www.w3.org/2000/svg" xmlns:xlink="http://www.w3.org/1999/xlink" x="0px" y="0px"
	 width="599.697px" height="599.759px" viewBox="96.121 6.12 599.697 599.759" enable-background="new 96.121 6.12 599.697 599.759"
	 xml:space="preserve">
<g>
	<g>
		<g>
			<path fill="#FFCC33" d="M595.94,6.12H196.06c-55.08,0-99.939,44.859-99.939,99.939v399.819
				c0,55.142,44.859,100.001,99.939,100.001h399.819c55.143,0,99.939-44.859,99.939-99.938V106.06
				C695.88,50.979,651.021,6.12,595.94,6.12z M645.88,505.94c0,27.602-22.398,50-50.001,50H196.06c-27.54,0-50-22.398-50-50V106.06
				c0-27.54,22.399-50,50-50h399.819c27.603,0,50.001,22.399,50.001,50V505.94z"/>
		</g>
	</g>
</g>
<g>
	<g>
		<path fill="#FFCC33" d="M243.11,445.308c-10.516,10.518-10.516,27.567,0,38.082c10.509,10.511,27.56,10.511,38.069,0
			l102.652-102.647l-35.933-40.224L243.11,445.308z"/>
		<path fill="#FFCC33" d="M599.531,197.442c-5.479-5.478-14.354-5.478-19.831,0l-66.823,66.816c-1.509,1.51-3.966,1.51-5.477,0
			l-9.425-9.424c-0.728-0.728-1.132-1.713-1.132-2.739c0-1.024,0.404-2.01,1.132-2.738l66.325-66.318
			c2.759-2.759,4.311-6.509,4.311-10.415c0-3.904-1.552-7.655-4.311-10.414c-2.778-2.779-6.522-4.331-10.422-4.331
			c-3.896,0-7.642,1.551-10.4,4.311l-66.329,66.336c-0.729,0.73-1.715,1.134-2.739,1.134c-1.026,0-2.01-0.404-2.739-1.134
			l-9.422-9.422c-1.512-1.511-1.512-3.966,0-5.477l66.815-66.823c5.478-5.478,5.478-14.353,0-19.83
			c-2.644-2.652-6.204-4.128-9.923-4.128c-3.716,0-7.276,1.476-9.899,4.107l-72.428,72.429
			c-18.106,18.101-22.886,44.33-14.699,66.913l-11.672,11.673l38.08,38.082l11.674-11.674c22.586,8.189,48.816,3.412,66.921-14.691
			l72.414-72.415C605.009,211.795,605.009,202.918,599.531,197.442z"/>
		<path fill="#FFCC33" d="M246.819,143.644c-6.299-6.299-14.838-9.835-23.742-9.835c-8.903,0-17.443,3.536-23.742,9.835
			c-11.946,11.946-13.153,30.898-2.833,44.268l88.968,115.157c7.055,9.142,17.706,14.8,29.227,15.534
			c0.857,0.056,1.706,0.081,2.563,0.081c10.617,0,20.85-4.209,28.404-11.77l145.98,163.41c5.311,5.937,12.822,9.432,20.782,9.653
			c0.271,0.007,0.54,0.014,0.81,0.014c7.67,0,15.042-3.042,20.484-8.485c11.312-11.312,11.312-29.645,0-40.955L246.819,143.644z"/>
	</g>
</g>
</svg>
